<svg id="Слой_1" data-name="Слой 1" xmlns="http://www.w3.org/2000/svg" viewBox="0 0 566.93 566.93"><title>Монтажная область 3 копия 7</title><path d="M199.72,264.79l-.15-27.72-13.45,22.56h-6.57l-13.37-21.81v27H152.51V212.5h12.17l18.38,30.18L201,212.5h12.17l.15,52.29Z"/><path d="M273.22,253.36v11.43h-42V212.5h41v11.43H245.88v8.81h23.23V243.8H245.88v9.56Z"/><path d="M300.15,262.36a25.93,25.93,0,0,1-10.27-9.67,28.31,28.31,0,0,1,0-28.09,25.86,25.86,0,0,1,10.27-9.67,30.89,30.89,0,0,1,14.76-3.47A31.61,31.61,0,0,1,327.82,214a24.82,24.82,0,0,1,9.57,7.33L328,229.83q-5.09-6.12-12.33-6.12a15.29,15.29,0,0,0-7.58,1.86,13.09,13.09,0,0,0-5.16,5.27,17.56,17.56,0,0,0,0,15.61,13.15,13.15,0,0,0,5.16,5.27,15.29,15.29,0,0,0,7.58,1.86q7.25,0,12.33-6.12l9.41,8.51a24.79,24.79,0,0,1-9.57,7.32,31.45,31.45,0,0,1-12.91,2.54A30.89,30.89,0,0,1,300.15,262.36Z"/><path d="M401.18,212.5v52.29H386.39V244.4H366.22v20.39H351.43V212.5h14.79v19.64h20.17V212.5Z"/><path d="M110.35,352a26,26,0,0,1-10.27-9.68,28.29,28.29,0,0,1,0-28.08,25.93,25.93,0,0,1,10.27-9.67,30.9,30.9,0,0,1,14.76-3.48A31.68,31.68,0,0,1,138,303.63a25,25,0,0,1,9.57,7.32l-9.41,8.52q-5.09-6.14-12.33-6.13a15.29,15.29,0,0,0-7.58,1.87,13,13,0,0,0-5.16,5.27,17.56,17.56,0,0,0,0,15.61,13,13,0,0,0,5.16,5.26,15.19,15.19,0,0,0,7.58,1.87q7.25,0,12.33-6.12l9.41,8.51a24.79,24.79,0,0,1-9.57,7.32,31.68,31.68,0,0,1-12.91,2.54A31,31,0,0,1,110.35,352Z"/><path d="M211.38,302.14v52.29H196.59V334H176.42v20.4H161.63V302.14h14.79v19.64h20.17V302.14Z"/><path d="M235.32,349.12q-6.45-6.35-6.46-18v-29h14.79v28.53q0,12.56,9.94,12.55t9.86-12.55V302.14H278v29q0,11.65-6.46,18t-18.12,6.35Q241.79,355.47,235.32,349.12Z"/><path d="M318.35,340.53h-8.07v13.9H295.49V302.14h23.9a29.84,29.84,0,0,1,12.33,2.35A19,19,0,0,1,340,331.38a17.8,17.8,0,0,1-7.58,6.61l11.28,16.44H327.84Zm7-24.72q-2.33-2-6.87-2h-8.22V329.1h8.22c3,0,5.32-.65,6.87-2a7,7,0,0,0,2.31-5.63A7.12,7.12,0,0,0,325.37,315.81Z"/><path d="M369.56,352a26,26,0,0,1-10.28-9.68,28.29,28.29,0,0,1,0-28.08,26,26,0,0,1,10.28-9.67,30.86,30.86,0,0,1,14.75-3.48,31.69,31.69,0,0,1,12.92,2.54,25,25,0,0,1,9.56,7.32l-9.41,8.52q-5.08-6.14-12.32-6.13a15.3,15.3,0,0,0-7.59,1.87,12.94,12.94,0,0,0-5.15,5.27,17.56,17.56,0,0,0,0,15.61,13,13,0,0,0,5.15,5.26,15.2,15.2,0,0,0,7.59,1.87q7.23,0,12.32-6.12l9.41,8.51a24.84,24.84,0,0,1-9.56,7.32,31.69,31.69,0,0,1-12.92,2.54A31,31,0,0,1,369.56,352Z"/><path d="M470.58,302.14v52.29H455.79V334H435.62v20.4H420.83V302.14h14.79v19.64h20.17V302.14Z"/></svg>