<svg id="Слой_1" data-name="Слой 1" xmlns="http://www.w3.org/2000/svg" viewBox="0 0 566.93 566.93"><title>Монтажная область 3 копия 10</title><path d="M404,144.34h-74.2V70.13c-7.24-7.24-11.31-11.3-18.55-18.55H255.64L237.09,70.13v74.21h-74.2l-18.55,18.55V404c7.24,7.25,11.3,11.31,18.55,18.55h74.2V496.8l18.55,18.55h55.65l18.55-18.55V422.59H404c7.25-7.24,11.31-11.3,18.55-18.55V162.89C415.35,155.64,411.29,151.58,404,144.34ZM162.89,170.57l7.68-7.68h85.07V77.82l7.68-7.69h40.29l7.68,7.69v85.07h85.07l7.68,7.68v40.29l-7.68,7.68H311.29v85.07l-7.68,7.68H263.32l-7.68-7.68V218.54H170.57l-7.68-7.68ZM170.57,404l-7.68-7.68V237.09h74.2V404Zm133,92.76H263.32l-7.68-7.68V329.84h55.65V489.12ZM404,396.36,396.36,404H329.84v-167H404Z"/></svg>