<svg id="Слой_1" data-name="Слой 1" xmlns="http://www.w3.org/2000/svg" viewBox="0 0 566.93 566.93"><title>Монтажная область 3</title><path d="M359.33,137.73H312.64V91.05L301,79.37H266L254.29,91.05v46.68H207.6L195.93,149.4V301.13L207.6,312.8h46.69v46.68c4.55,4.56,7.11,7.12,11.67,11.67h35l11.67-11.67V312.8h46.69L371,301.13V149.4ZM207.6,154.24l4.84-4.84H266V95.88l4.83-4.83h25.35L301,95.88V149.4h53.52l4.84,4.84v25.34l-4.84,4.84H301v53.52l-4.83,4.83H270.79L266,237.94V184.42H212.44l-4.84-4.84Zm4.84,146.89-4.84-4.84V196.09h46.69v105Zm83.7,58.35H270.79L266,354.65V254.44h35V354.65Zm63.19-63.19-4.84,4.84H312.64v-105h46.69Z"/><path d="M242.85,443.58l-.07-13.44-6.52,10.94h-3.19l-6.48-10.58v13.08H220V418.22h5.9l8.91,14.64,8.7-14.64h5.9l.08,25.36Z"/><path d="M278.5,438v5.55H258.14V418.22H278v5.54H265.24V428H276.5v5.36H265.24V438Z"/><path d="M291.56,442.4a12.44,12.44,0,0,1-5-4.69,13.72,13.72,0,0,1,0-13.62,12.44,12.44,0,0,1,5-4.69,14.89,14.89,0,0,1,7.15-1.69,15.39,15.39,0,0,1,6.27,1.23,12.09,12.09,0,0,1,4.63,3.56l-4.56,4.12a7.53,7.53,0,0,0-6-3,7.4,7.4,0,0,0-3.67.91,6.26,6.26,0,0,0-2.5,2.55,8.51,8.51,0,0,0,0,7.58,6.33,6.33,0,0,0,2.5,2.55,7.39,7.39,0,0,0,3.67.9,7.5,7.5,0,0,0,6-3l4.56,4.13a12,12,0,0,1-4.63,3.55,15.39,15.39,0,0,1-6.27,1.23A15,15,0,0,1,291.56,442.4Z"/><path d="M340.55,418.22v25.36h-7.17v-9.89H323.6v9.89h-7.18V418.22h7.18v9.53h9.78v-9.53Z"/><path d="M199.52,485.87a12.6,12.6,0,0,1-5-4.69,13.72,13.72,0,0,1,0-13.62,12.53,12.53,0,0,1,5-4.69,15,15,0,0,1,7.15-1.69,15.3,15.3,0,0,1,6.26,1.23,12.19,12.19,0,0,1,4.64,3.55L213,470.09a7.64,7.64,0,0,0-9.66-2.06,6.33,6.33,0,0,0-2.5,2.55,8.58,8.58,0,0,0,0,7.57,6.35,6.35,0,0,0,2.5,2.56,7.66,7.66,0,0,0,9.66-2.07l4.56,4.13a12,12,0,0,1-4.64,3.55,15.3,15.3,0,0,1-6.26,1.23A15,15,0,0,1,199.52,485.87Z"/><path d="M248.51,461.69v25.36h-7.17v-9.89h-9.79v9.89h-7.17V461.69h7.17v9.53h9.79v-9.53Z"/><path d="M260.12,484.47Q257,481.4,257,475.74V461.69h7.18v13.84c0,4.05,1.6,6.08,4.82,6.08s4.78-2,4.78-6.08V461.69h7.06v14.05q0,5.65-3.13,8.73c-2.09,2.06-5,3.08-8.79,3.08S262.21,486.53,260.12,484.47Z"/><path d="M300.38,480.31h-3.91v6.74H289.3V461.69h11.59a14.53,14.53,0,0,1,6,1.14,9.24,9.24,0,0,1,4,13,8.77,8.77,0,0,1-3.68,3.21l5.47,8H305Zm3.4-12a4.94,4.94,0,0,0-3.33-1h-4v7.43h4a5,5,0,0,0,3.33-1,3.42,3.42,0,0,0,1.13-2.74A3.45,3.45,0,0,0,303.78,468.32Z"/><path d="M325.21,485.87a12.64,12.64,0,0,1-5-4.69,13.72,13.72,0,0,1,0-13.62,12.57,12.57,0,0,1,5-4.69,15.08,15.08,0,0,1,7.16-1.69,15.3,15.3,0,0,1,6.26,1.23,12.19,12.19,0,0,1,4.64,3.55l-4.56,4.13a7.53,7.53,0,0,0-6-3,7.44,7.44,0,0,0-3.68.91,6.27,6.27,0,0,0-2.5,2.55,8.49,8.49,0,0,0,0,7.57,6.29,6.29,0,0,0,2.5,2.56,7.43,7.43,0,0,0,3.68.9,7.53,7.53,0,0,0,6-3l4.56,4.13a12,12,0,0,1-4.64,3.55,15.3,15.3,0,0,1-6.26,1.23A15.07,15.07,0,0,1,325.21,485.87Z"/><path d="M374.21,461.69v25.36H367v-9.89h-9.78v9.89h-7.17V461.69h7.17v9.53H367v-9.53Z"/></svg>