<svg id="Слой_1" data-name="Слой 1" xmlns="http://www.w3.org/2000/svg" viewBox="0 0 1053.35 370.59"><title>Монтажная область 3 копия 4</title><path d="M378.52,207.42l-.06-32.24-16,26.87h-2.9l-16-26.68v32h-6.07V163.17h5.18l18.47,31.1,18.21-31.1h5.18l.06,44.25Z"/><path d="M435.05,201.92v5.5H402.93V163.17h31.24v5.5H409.25v13.59h22.2v5.37h-22.2v14.29Z"/><path d="M458,205a21.63,21.63,0,0,1-8.37-8.09,23.67,23.67,0,0,1,0-23.21,21.58,21.58,0,0,1,8.4-8.09,24.62,24.62,0,0,1,12-2.94,25.23,25.23,0,0,1,9.48,1.73,19.44,19.44,0,0,1,7.33,5.16l-4.1,4a16.52,16.52,0,0,0-12.46-5.25,18,18,0,0,0-8.92,2.22,16,16,0,0,0-6.22,6.1,17.93,17.93,0,0,0,0,17.39,16.07,16.07,0,0,0,6.22,6.1,18,18,0,0,0,8.92,2.21A16.55,16.55,0,0,0,482.73,197l4.1,4a19.66,19.66,0,0,1-7.36,5.18,24.94,24.94,0,0,1-9.52,1.77A24.44,24.44,0,0,1,458,205Z"/><path d="M539,163.17v44.25h-6.32V187.69H507.26v19.73h-6.33V163.17h6.33v19h25.42v-19Z"/><path d="M587.22,205a21.59,21.59,0,0,1-8.38-8.09,23.67,23.67,0,0,1,0-23.21,21.6,21.6,0,0,1,8.41-8.09,24.61,24.61,0,0,1,12-2.94,25.28,25.28,0,0,1,9.49,1.73,19.51,19.51,0,0,1,7.33,5.16l-4.11,4a16.48,16.48,0,0,0-12.45-5.25,18,18,0,0,0-8.92,2.22,16,16,0,0,0-6.23,6.1,18,18,0,0,0,0,17.39,16.09,16.09,0,0,0,6.23,6.1,18,18,0,0,0,8.92,2.21A16.53,16.53,0,0,0,612,197l4.11,4a19.74,19.74,0,0,1-7.36,5.18,25,25,0,0,1-9.52,1.77A24.41,24.41,0,0,1,587.22,205Z"/><path d="M668.25,163.17v44.25h-6.33V187.69H636.5v19.73h-6.32V163.17h6.32v19h25.42v-19Z"/><path d="M691.13,202.87q-4.92-5.06-4.93-14.54V163.17h6.32v24.91q0,14.22,12.46,14.22c4,0,7.15-1.16,9.29-3.51s3.23-5.91,3.23-10.71V163.17h6.13v25.16q0,9.54-4.92,14.58t-13.79,5Q696.07,207.93,691.13,202.87Z"/><path d="M771.24,207.42l-9.54-13.59c-1.19.09-2.11.13-2.79.13H748v13.46h-6.32V163.17h17.26q8.61,0,13.53,4.1t4.94,11.32a14.8,14.8,0,0,1-2.54,8.73,14.28,14.28,0,0,1-7.2,5.25l10.49,14.85ZM767.89,186a10.21,10.21,0,0,0,0-14.77c-2.11-1.7-5.16-2.55-9.17-2.55H748v19.91h10.75C762.73,188.58,765.78,187.72,767.89,186Z"/><path d="M800.49,205a21.66,21.66,0,0,1-8.38-8.09,23.74,23.74,0,0,1,0-23.21,21.67,21.67,0,0,1,8.41-8.09,24.62,24.62,0,0,1,12-2.94,25.27,25.27,0,0,1,9.48,1.73,19.44,19.44,0,0,1,7.33,5.16l-4.1,4a16.52,16.52,0,0,0-12.46-5.25,18,18,0,0,0-8.92,2.22,16,16,0,0,0-6.22,6.1,17.93,17.93,0,0,0,0,17.39,16.07,16.07,0,0,0,6.22,6.1,18,18,0,0,0,8.92,2.21A16.55,16.55,0,0,0,825.25,197l4.1,4a19.66,19.66,0,0,1-7.36,5.18,24.94,24.94,0,0,1-9.52,1.77A24.41,24.41,0,0,1,800.49,205Z"/><path d="M881.52,163.17v44.25H875.2V187.69H849.78v19.73h-6.33V163.17h6.33v19H875.2v-19Z"/><path d="M260.39,137.85h-25.3v-25.3l-6.33-6.32h-19l-6.33,6.32v25.3h-25.3l-6.33,6.33v82.23l6.33,6.32h25.3V258l6.33,6.32h19l6.33-6.32V232.73h25.3l6.32-6.32V144.18Zm-82.23,9,2.62-2.62h29v-29l2.62-2.62h13.73l2.62,2.62v29h29l2.62,2.62v13.74l-2.62,2.62h-29v29l-2.62,2.62H212.41l-2.62-2.62v-29h-29l-2.62-2.62Zm2.62,79.61-2.62-2.62V169.48h25.3v56.93ZM226.14,258H212.41l-2.62-2.62V201.11h19v54.31Zm34.25-34.25-2.62,2.62H235.09V169.48h25.3Z"/></svg>