<svg id="Слой_1" data-name="Слой 1" xmlns="http://www.w3.org/2000/svg" viewBox="0 0 566.93 566.93"><defs><style>.cls-1{fill:#fff;}</style></defs><title>Монтажная область 3 копия 3</title><rect x="-11.95" y="-11.95" width="590.82" height="590.82"/><path class="cls-1" d="M95.33,383.64l0-26.27-13,21.89H79.88l-13-21.73v26.11H61.91V347.59h4.22l15,25.34L96,347.59h4.23l0,36.05Z"/><path class="cls-1" d="M141.38,379.16v4.48H115.21V347.59h25.44v4.48H120.36v11.07h18.08v4.38H120.36v11.64Z"/><path class="cls-1" d="M160,381.66a17.66,17.66,0,0,1-6.82-6.6,19.31,19.31,0,0,1,0-18.9,17.65,17.65,0,0,1,6.85-6.59,20.12,20.12,0,0,1,9.78-2.4,20.53,20.53,0,0,1,7.73,1.42,15.85,15.85,0,0,1,6,4.2L180.21,356a13.45,13.45,0,0,0-10.15-4.27,14.69,14.69,0,0,0-7.26,1.8,13,13,0,0,0-5.07,5,14.61,14.61,0,0,0,0,14.16,13,13,0,0,0,5.07,5,14.69,14.69,0,0,0,7.26,1.8,13.47,13.47,0,0,0,10.15-4.33l3.34,3.25a16.07,16.07,0,0,1-6,4.22,20.29,20.29,0,0,1-7.75,1.44A20,20,0,0,1,160,381.66Z"/><path class="cls-1" d="M226,347.59v36.05h-5.15V367.57h-20.7v16.07H195V347.59h5.15v15.5h20.7v-15.5Z"/><path class="cls-1" d="M265.31,381.66a17.66,17.66,0,0,1-6.82-6.6,19.31,19.31,0,0,1,0-18.9,17.65,17.65,0,0,1,6.85-6.59,20.09,20.09,0,0,1,9.78-2.4,20.53,20.53,0,0,1,7.73,1.42,15.85,15.85,0,0,1,6,4.2L285.48,356a13.45,13.45,0,0,0-10.15-4.27,14.69,14.69,0,0,0-7.26,1.8,13.05,13.05,0,0,0-5.08,5,14.68,14.68,0,0,0,0,14.16,13.08,13.08,0,0,0,5.08,5,14.69,14.69,0,0,0,7.26,1.8,13.47,13.47,0,0,0,10.15-4.33l3.34,3.25a16.07,16.07,0,0,1-6,4.22,20.29,20.29,0,0,1-7.75,1.44A20,20,0,0,1,265.31,381.66Z"/><path class="cls-1" d="M331.31,347.59v36.05h-5.15V367.57h-20.7v16.07H300.3V347.59h5.16v15.5h20.7v-15.5Z"/><path class="cls-1" d="M350,379.93c-2.67-2.75-4-6.69-4-11.85V347.59h5.14v20.29q0,11.58,10.15,11.59,4.95,0,7.57-2.86t2.63-8.73V347.59h5v20.49q0,7.79-4,11.88t-11.23,4.09Q354,384.05,350,379.93Z"/><path class="cls-1" d="M415.2,383.64l-7.77-11.08c-1,.08-1.72.11-2.27.11h-8.91v11H391.1V347.59h14.06q7,0,11,3.34a11.37,11.37,0,0,1,4,9.22,12.08,12.08,0,0,1-2.06,7.11,11.64,11.64,0,0,1-5.87,4.28l8.54,12.1Zm-2.73-17.46a7.34,7.34,0,0,0,2.58-6,7.27,7.27,0,0,0-2.58-6c-1.72-1.38-4.2-2.08-7.47-2.08h-8.75v16.22H405C408.27,368.29,410.75,367.59,412.47,366.18Z"/><path class="cls-1" d="M439,381.66a17.66,17.66,0,0,1-6.82-6.6,19.31,19.31,0,0,1,0-18.9,17.65,17.65,0,0,1,6.85-6.59,20.13,20.13,0,0,1,9.79-2.4,20.48,20.48,0,0,1,7.72,1.42,15.78,15.78,0,0,1,6,4.2L459.19,356A13.45,13.45,0,0,0,449,351.76a14.69,14.69,0,0,0-7.26,1.8,13.09,13.09,0,0,0-5.07,5,14.61,14.61,0,0,0,0,14.16,13.12,13.12,0,0,0,5.07,5,14.69,14.69,0,0,0,7.26,1.8,13.45,13.45,0,0,0,10.15-4.33l3.34,3.25a15.92,15.92,0,0,1-6,4.22,20.29,20.29,0,0,1-7.75,1.44A20,20,0,0,1,439,381.66Z"/><path class="cls-1" d="M505,347.59v36.05h-5.15V367.57h-20.7v16.07H474V347.59h5.15v15.5h20.7v-15.5Z"/><path class="cls-1" d="M316.92,208.61H296.33V188l-5.15-5.14H275.74L270.6,188v20.59H250l-5.15,5.15v66.9l5.15,5.15H270.6V306.4l5.14,5.14h15.44l5.15-5.14V285.81h20.59l5.14-5.15v-66.9ZM250,215.89l2.13-2.13h23.6v-23.6l2.14-2.14h11.17l2.13,2.14v23.6h23.61l2.13,2.13v11.17l-2.13,2.14H291.18v23.6l-2.13,2.13H277.88l-2.14-2.13V229.2h-23.6L250,227.06Zm2.13,64.77L250,278.53V234.34H270.6v46.32Zm36.91,25.74H277.88l-2.14-2.14V260.08h15.44v44.18Zm27.87-27.87-2.13,2.13H296.33V234.34h20.59Z"/></svg>