<svg id="Слой_1" data-name="Слой 1" xmlns="http://www.w3.org/2000/svg" viewBox="0 0 1053.35 370.59"><defs><style>.cls-1{fill:#fff;}</style></defs><title>Монтажная область 3 копия 9</title><rect x="-21.85" y="-25.41" width="1097.06" height="421.41"/><path class="cls-1" d="M206.31,216l-.09-44.73L184,208.54h-4l-22.19-37V216h-8.42V154.6h7.19l25.61,43.14,25.26-43.14h7.19l.09,61.39Z"/><path class="cls-1" d="M284.71,208.36V216H240.16V154.6h43.33v7.63H248.93v18.86h30.78v7.45H248.93v19.82Z"/><path class="cls-1" d="M316.5,212.61a30,30,0,0,1-11.62-11.23,32.85,32.85,0,0,1,0-32.18A30,30,0,0,1,316.55,158a34.09,34.09,0,0,1,16.66-4.09,34.71,34.71,0,0,1,13.15,2.42,26.94,26.94,0,0,1,10.18,7.15l-5.7,5.52a22.9,22.9,0,0,0-17.28-7.28,25,25,0,0,0-12.37,3.07,22.24,22.24,0,0,0-8.63,8.47,24.85,24.85,0,0,0,0,24.11,22.24,22.24,0,0,0,8.63,8.47,25,25,0,0,0,12.37,3.07,22.94,22.94,0,0,0,17.28-7.37l5.7,5.52a27.17,27.17,0,0,1-10.22,7.19,34.51,34.51,0,0,1-13.2,2.46A33.88,33.88,0,0,1,316.5,212.61Z"/><path class="cls-1" d="M428.89,154.6V216h-8.77V188.62H384.86V216h-8.77V154.6h8.77V181h35.26V154.6Z"/><path class="cls-1" d="M495.77,212.61a29.88,29.88,0,0,1-11.62-11.23,32.85,32.85,0,0,1,0-32.18A29.9,29.9,0,0,1,495.81,158a34.15,34.15,0,0,1,16.66-4.09,34.8,34.8,0,0,1,13.16,2.42,27,27,0,0,1,10.17,7.15L530.1,169a22.89,22.89,0,0,0-17.28-7.28,25,25,0,0,0-12.36,3.07,22.26,22.26,0,0,0-8.64,8.47,24.92,24.92,0,0,0,0,24.11,22.26,22.26,0,0,0,8.64,8.47,25,25,0,0,0,12.36,3.07,22.94,22.94,0,0,0,17.28-7.37l5.7,5.52a27.21,27.21,0,0,1-10.21,7.19,34.56,34.56,0,0,1-13.21,2.46A33.84,33.84,0,0,1,495.77,212.61Z"/><path class="cls-1" d="M608.15,154.6V216h-8.77V188.62H564.13V216h-8.78V154.6h8.78V181h35.25V154.6Z"/><path class="cls-1" d="M639.9,209.68q-6.84-7-6.84-20.18V154.6h8.77v34.55q0,19.74,17.28,19.74,8.42,0,12.89-4.87t4.47-14.87V154.6H685v34.9q0,13.25-6.84,20.22t-19.12,7Q646.74,216.69,639.9,209.68Z"/><path class="cls-1" d="M751,216l-13.24-18.86c-1.64.12-2.92.18-3.86.18H718.74V216H710V154.6h23.94q11.93,0,18.76,5.7t6.85,15.7A20.52,20.52,0,0,1,756,188.1a19.79,19.79,0,0,1-10,7.28L760.57,216Zm-4.64-29.73c2.91-2.4,4.38-5.82,4.38-10.26s-1.47-7.85-4.38-10.22-7.17-3.55-12.72-3.55H718.74v27.62h14.91Q742,189.85,746.37,186.26Z"/><path class="cls-1" d="M791.58,212.61A29.88,29.88,0,0,1,780,201.38a32.85,32.85,0,0,1,0-32.18A29.9,29.9,0,0,1,791.62,158a34.16,34.16,0,0,1,16.67-4.09,34.71,34.71,0,0,1,13.15,2.42,26.83,26.83,0,0,1,10.17,7.15L825.92,169a22.92,22.92,0,0,0-17.28-7.28,25,25,0,0,0-12.37,3.07,22.33,22.33,0,0,0-8.64,8.47,24.92,24.92,0,0,0,0,24.11,22.33,22.33,0,0,0,8.64,8.47,25,25,0,0,0,12.37,3.07,23,23,0,0,0,17.28-7.37l5.69,5.52a27.13,27.13,0,0,1-10.21,7.19,34.56,34.56,0,0,1-13.21,2.46A33.87,33.87,0,0,1,791.58,212.61Z"/><path class="cls-1" d="M904,154.6V216H895.2V188.62H859.94V216h-8.77V154.6h8.77V181H895.2V154.6Z"/></svg>